<svg width="314" height="52" viewBox="0 0 314 52" fill="none" xmlns="http://www.w3.org/2000/svg">
<path d="M18.1664 36.6818L17.4139 33.1346H8.08888L6.26149 36.6818H0L12.4424 14.1082H18.892L24.186 36.6818H18.1664ZM10.6418 28.2973H16.4465L15.2103 21.9821C15.0759 21.364 14.9953 20.5847 14.9416 19.5098C14.5922 20.5847 14.2966 21.2834 13.9473 21.9284L10.6418 28.2973Z" fill="white"/>
<path d="M39.6651 14.1084C44.2605 14.1084 47.7002 16.0701 47.0553 20.1549C46.7059 22.4391 45.416 23.9977 42.9974 24.8039C45.1473 25.4758 46.8403 27.33 46.3297 30.6355C45.5504 35.5533 40.9282 36.6551 36.3059 36.6551H26.3359L29.9101 14.0815H39.6651V14.1084ZM37.9452 27.3032H33.753L33.0005 32.006H36.924C38.7245 32.006 40.1488 31.4148 40.4713 29.7755C40.8744 27.8675 39.692 27.3032 37.9452 27.3032ZM38.9395 18.7843H35.0966L34.4517 22.9497L38.0258 22.9766C39.6114 22.9766 40.7669 22.1704 40.9819 21.0148C41.3044 19.5905 40.5788 18.7843 38.9395 18.7843Z" fill="white"/>
<path d="M68.4195 14.1082L67.5864 19.4291H61.2443L58.5032 36.6818H52.5373L55.2784 19.4291H48.9094L49.7425 14.1082H68.4195Z" fill="white"/>
<path d="M77.9327 37.1658C70.0588 37.1658 66.4578 31.5224 67.479 25.0459C68.4464 18.9457 73.3374 13.6248 81.1038 13.6248C88.6552 13.6248 92.5787 19.2682 91.5575 25.7446C90.5901 31.8449 85.6991 37.1658 77.9327 37.1658ZM78.2821 31.6836C82.3131 31.6836 84.9467 28.9963 85.5379 25.2072C86.1022 21.7943 84.5436 19.1069 80.7813 19.1069C76.7503 19.1069 74.1436 21.7943 73.5255 25.5834C72.9612 28.9963 74.5198 31.6836 78.2821 31.6836Z" fill="white"/>
<path d="M107.466 13.6248C110.046 13.6248 112.115 14.1622 113.97 15.2909L113.137 20.5581C111.981 19.4831 110.127 18.8382 108.219 18.8382C104.833 18.8382 100.479 20.5581 99.6999 25.5834C99.0281 29.8294 102.172 31.8986 105.558 31.8986C107.843 31.8986 110.1 31.1193 111.82 29.9638L110.879 35.7953C108.917 36.7358 106.633 37.1389 104.403 37.1389C98.41 37.1389 92.3904 33.2692 93.6803 25.0191C94.9433 17.0377 102.145 13.6248 107.466 13.6248Z" fill="white"/>
<path d="M134.555 14.1082L133.722 19.4291H127.38L124.639 36.6818H118.673L121.414 19.4291H115.018L115.851 14.1082H134.555Z" fill="white"/>
<path d="M144.068 37.1658C136.194 37.1658 132.593 31.5224 133.614 25.0459C134.582 18.9457 139.473 13.6248 147.239 13.6248C154.79 13.6248 158.714 19.2682 157.693 25.7446C156.752 31.8449 151.834 37.1658 144.068 37.1658ZM144.444 31.6836C148.475 31.6836 151.109 28.9963 151.7 25.2072C152.237 21.7943 150.679 19.1069 146.917 19.1069C142.886 19.1069 140.279 21.7943 139.661 25.5834C139.123 28.9963 140.655 31.6836 144.444 31.6836Z" fill="white"/>
<path d="M156.752 36.6819L164.411 28.2168C161.831 26.9807 160.246 24.7233 160.81 21.5522C161.643 16.0969 166.346 14.1352 171.103 14.1352H180.75L177.176 36.7088H171.21L172.366 29.3724H170.404L163.766 36.7088H156.752V36.6819ZM169.517 24.5083H173.118L173.951 19.2949H170.592C168.55 19.2949 167.098 20.128 166.857 21.7404C166.561 23.5946 167.663 24.5083 169.517 24.5083Z" fill="white"/>
<path d="M205.312 14.1082L201.738 36.6818H195.772L197.116 28.0824H188.731L187.388 36.6818H181.422L184.996 14.1082H190.962L189.618 22.7346H198.003L199.346 14.1082H205.312Z" fill="white"/>
<path d="M230.17 14.1084L221.383 25.6102L226.784 36.6551H220.442L216.357 27.9481H213.348L211.95 36.6551H205.984L209.559 14.0815H215.524L214.181 22.6272H217.191L223.64 14.0815H230.17V14.1084Z" fill="white"/>
<path d="M244.843 36.6818L244.09 33.1346H234.739L232.911 36.6818H226.65L239.092 14.1082H245.542L250.836 36.6818H244.843ZM237.318 28.2973H243.123L241.887 21.9821C241.752 21.364 241.672 20.5847 241.618 19.5098C241.269 20.5847 240.973 21.2834 240.624 21.9284L237.318 28.2973Z" fill="white"/>
<path d="M270.722 14.2697C274.914 14.2697 278.945 16.3658 278.139 21.418C277.602 24.9384 275.237 26.3358 272.173 28.1095C268.922 30.0175 266.987 30.8506 266.826 31.6568H276.688L275.882 36.6552H258.898L259.355 33.8873C260.188 28.5932 264.38 26.4971 267.739 24.6697C270.453 23.1917 272.012 22.5736 272.254 21.0149C272.415 19.94 271.448 19.4025 269.889 19.4025C267.578 19.4025 264.676 20.37 261.988 22.2511L262.848 16.6346C265.563 14.9684 268.116 14.2697 270.722 14.2697Z" fill="#FFA300"/>
<path d="M298.214 14.753L296.064 28.2972H298.966L298.214 33.1344H295.311L294.72 36.6816H289.077L289.668 33.1344H278.542L279.295 28.2972L292.382 14.753H298.214ZM291.388 22.2775L285.583 28.2972H290.42L291.388 22.2775Z" fill="#FFA300"/>
<path d="M272.604 43.535L276.285 51.7045L281.499 42.6213L272.604 43.535Z" fill="white"/>
<path d="M288.754 0.295654C281.767 0.295654 275.452 3.14423 270.884 7.76644L272.792 9.67445C276.876 5.56283 282.52 2.98299 288.781 2.98299C301.197 2.98299 311.274 13.0874 311.274 25.476C311.274 37.8646 301.17 47.969 288.781 47.969C283.971 47.969 279.537 46.4103 275.882 43.8305L274.108 45.8997C278.247 48.8827 283.272 50.6563 288.754 50.6563C302.648 50.6563 313.935 39.3695 313.935 25.476C313.935 11.5825 302.648 0.295654 288.754 0.295654Z" fill="white"/>
</svg>
