<svg width="34" height="26" viewBox="0 0 34 26" fill="none" xmlns="http://www.w3.org/2000/svg">
<path d="M28.0475 12.9897L29.6353 11.6453C30.2771 11.1019 30.6283 10.3082 30.5987 9.46769C30.5691 8.62725 30.163 7.86019 29.4846 7.36327L27.2033 5.69229C26.5565 5.21835 25.7198 5.17565 25.0452 5.5375L24.6216 4.27751C24.5856 4.17046 24.5143 4.07875 24.4193 4.01759L22.2582 2.62472C22.1331 1.63162 21.2838 0.86084 20.2573 0.86084C19.1449 0.86084 18.2399 1.76582 18.2399 2.8782C18.2399 3.99057 19.1449 4.89555 20.2573 4.89555C20.4444 4.89555 20.6255 4.86939 20.7975 4.82151L22.1219 5.75458L22.3327 6.38146C21.4893 6.01702 20.596 5.81946 19.6774 5.79449C19.4048 5.78759 19.1735 6.00387 19.166 6.27886C19.1586 6.55385 19.3754 6.78275 19.6504 6.79025C20.4454 6.81184 21.2183 6.98336 21.9477 7.30012L23.4499 7.95243C23.6362 8.03338 23.8529 7.99294 23.9978 7.85043L25.2741 6.59349C25.6383 6.23476 26.2023 6.19366 26.6147 6.49574L28.1163 7.59563L26.4389 8.02136C25.6237 8.22828 25.1072 8.93146 25.1537 9.7711C25.2001 10.6107 25.7909 11.2527 26.6238 11.3684L28.1673 11.5831L24.3281 14.8336C23.7472 15.3254 23.2672 15.9097 22.9021 16.5556L22.1634 15.3328C20.9569 13.3356 19.0741 11.827 16.862 11.085L15.289 10.5575C15.0283 10.4702 14.746 10.6105 14.6585 10.8713C14.5711 11.1321 14.7115 11.4144 14.9724 11.5019L16.5452 12.0294C18.5338 12.6964 20.2263 14.0525 21.3108 15.8479L22.4089 17.6657C22.1949 18.3068 22.0823 18.985 22.0823 19.6777C22.0823 20.1941 21.6623 20.6142 21.1458 20.6142H19.8903L20.9208 19.5836C21.1153 19.3891 21.1153 19.0737 20.9208 18.8793C20.7263 18.6848 20.411 18.6848 20.2165 18.8793L18.5026 20.5932C18.4958 20.6 18.4899 20.6071 18.4836 20.6142H17.2073L18.2379 19.5836C18.4324 19.3891 18.4324 19.0737 18.2379 18.8793C18.0434 18.6848 17.7281 18.6848 17.5335 18.8793L15.8196 20.5932C15.8128 20.6 15.8069 20.6071 15.8006 20.6142H13.6845C13.5174 20.6142 13.4532 20.4932 13.4334 20.4413C13.4135 20.3893 13.3808 20.2563 13.5054 20.1449L15.3767 18.4727C15.645 18.233 15.7988 17.8893 15.7988 17.5295V15.2956C15.7988 14.8396 15.5519 14.4172 15.1546 14.1935L5.04017 8.49802C6.22824 7.7214 7.75897 7.58341 9.07475 8.16579L12.3575 9.61869C13.1693 9.97795 14.1279 9.74865 14.6895 9.06148C15.4394 8.14348 16.4314 7.46335 17.5584 7.09473C17.8198 7.00919 17.9624 6.72796 17.8769 6.46646C17.7914 6.20508 17.5103 6.06237 17.2487 6.14797C16.2582 6.47203 15.3576 7.00368 14.6007 7.7052C14.1986 7.08071 13.6089 6.60412 12.9003 6.34015L7.05766 4.16355C6.88009 4.09741 6.68731 4.10439 6.51498 4.18314C6.34253 4.26197 6.21118 4.40321 6.14517 4.58065L6.07126 4.77894C5.80364 5.49746 5.81619 6.27175 6.09576 6.96842C5.32445 7.16007 4.59352 7.52597 3.97056 8.05689C3.81252 8.19169 3.73011 8.39569 3.75016 8.60248C3.77021 8.80927 3.89021 8.99361 4.0713 9.09555L9.66191 12.2437L8.86656 13.6407C8.01696 13.2131 7.06755 12.9877 6.10931 12.9877C5.49718 12.9877 4.89268 13.0777 4.31255 13.2549C4.04945 13.3353 3.90143 13.6137 3.98179 13.8767C4.0622 14.1398 4.34104 14.2878 4.60361 14.2074C5.08931 14.059 5.59592 13.9838 6.10931 13.9838C6.89523 13.9838 7.67344 14.1647 8.3729 14.5079L7.66846 15.7451C7.18316 15.5196 6.6482 15.4002 6.10931 15.4002C4.07887 15.4002 2.42702 17.0436 2.42702 19.0635C2.42702 21.0835 4.07887 22.7268 6.10931 22.7268C7.40914 22.7268 8.61289 22.0423 9.27556 20.9341L10.7969 21.0946C9.98989 22.932 8.15024 24.1432 6.10931 24.1432C3.28983 24.1431 0.996094 21.8644 0.996094 19.0635C0.996094 17.4613 1.77079 15.9346 3.06837 14.9793C3.2899 14.8162 3.33725 14.5045 3.17422 14.283C3.01106 14.0615 2.69935 14.0141 2.47788 14.1772C0.926301 15.3193 0 17.146 0 19.0635C0 22.4137 2.74065 25.1392 6.10924 25.1392C8.6528 25.1392 10.9349 23.5621 11.8274 21.2032L12.8285 21.3088C12.8409 21.3101 12.8531 21.3103 12.8653 21.3107C13.0882 21.5004 13.3749 21.6104 13.6845 21.6104H21.1459C21.5379 21.6104 21.9027 21.4927 22.2077 21.2914C22.5956 22.266 23.2357 23.1373 24.0647 23.8003C25.1441 24.6637 26.5029 25.1392 27.8908 25.1392C31.2593 25.1392 34 22.4137 34 19.0635C34 15.7654 31.344 13.0727 28.0475 12.9897ZM19.2361 2.87826C19.2361 2.31514 19.6942 1.857 20.2574 1.857C20.8205 1.857 21.2786 2.31514 21.2786 2.87826C21.2786 3.44139 20.8205 3.89952 20.2574 3.89952C19.6942 3.89952 19.2361 3.44139 19.2361 2.87826ZM23.5542 6.8892L23.0142 5.28277C22.9804 5.18236 22.9156 5.0953 22.8289 5.03434L21.7271 4.25805C21.8788 4.09655 22.0041 3.91015 22.0965 3.70568L23.7329 4.76035L24.2261 6.22753L23.5542 6.8892ZM6.97963 5.1975L12.5526 7.27362C13.1368 7.4913 13.6076 7.91185 13.8891 8.46389C13.6072 8.77899 13.1501 8.88026 12.7606 8.70787L9.47783 7.25496C8.72738 6.9228 7.92021 6.78076 7.1242 6.81814C6.85246 6.31864 6.80027 5.73758 6.97963 5.1975ZM14.713 17.73L12.8416 19.4023C12.5863 19.6304 12.4413 19.9402 12.4213 20.2641L6.56811 19.6468V19.0028L14.6029 16.9885C14.6693 16.9796 14.736 16.9744 14.8027 16.9729V17.5296C14.8027 17.606 14.7701 17.6791 14.713 17.73ZM14.8028 15.2958V15.9776C14.6801 15.9794 14.5573 15.9884 14.4355 16.0062C14.419 16.0086 14.4027 16.0118 14.3864 16.0159L11.9754 16.6203L13.3006 14.2928L14.666 15.0616C14.7503 15.1092 14.8028 15.1989 14.8028 15.2958ZM12.4326 13.804L10.6383 16.9555L7.70711 17.6904L10.5298 12.7325L12.4326 13.804ZM6.10924 21.7306C4.62805 21.7306 3.42304 20.5341 3.42304 19.0634C3.42304 17.5927 4.62805 16.3962 6.10924 16.3962C6.47574 16.3962 6.83925 16.472 7.17314 16.6148L6.37002 18.0255L5.949 18.131C5.72747 18.1866 5.57208 18.3857 5.57208 18.6141V20.095C5.57208 20.3498 5.76439 20.5636 6.01787 20.5903L8.1355 20.8136C7.63061 21.3889 6.89416 21.7306 6.10924 21.7306ZM26.8425 14.01L28.5771 19.1699C28.6135 19.2778 28.6053 19.3933 28.5542 19.4951C28.5031 19.5969 28.4154 19.6724 28.3071 19.7079C28.0869 19.7798 27.8475 19.6598 27.7736 19.44L26.1463 14.5994L26.8425 14.01ZM25.9695 17.1995L26.8295 19.7575C27.0282 20.3487 27.5846 20.7247 28.1782 20.7247C28.3237 20.7247 28.4715 20.7021 28.6168 20.6545C28.9793 20.5359 29.2733 20.2829 29.4443 19.9419C29.6155 19.601 29.6428 19.2141 29.5212 18.8525L28.7415 16.5331C29.8166 16.8893 30.5768 17.9 30.5768 19.0635C30.5768 20.5342 29.3718 21.7307 27.8906 21.7307C26.4094 21.7307 25.2045 20.5342 25.2045 19.0635C25.2046 18.3535 25.4795 17.6943 25.9695 17.1995ZM26.1483 9.71625C26.1326 9.43342 26.2651 9.09329 26.6838 8.98697L29.1249 8.3674C29.4169 8.67174 29.5881 9.07197 29.6032 9.50282C29.6192 9.95491 29.4609 10.3853 29.1646 10.7162L26.7609 10.382C26.333 10.3225 26.1639 9.99907 26.1483 9.71625ZM27.8908 24.1431C26.7113 24.1431 25.6035 23.7557 24.6869 23.0225C23.8392 22.3446 23.2271 21.4078 22.9493 20.3711C23.0324 20.1558 23.0784 19.9222 23.0784 19.6779C23.0784 19.034 23.1936 18.4048 23.4119 17.8162C23.4191 17.8001 23.4253 17.7836 23.4308 17.7669C23.7489 16.9342 24.2737 16.1849 24.9718 15.594L25.3283 15.2922L25.6258 16.1771C24.7371 16.8687 24.2085 17.9392 24.2085 19.0635C24.2085 21.0835 25.8604 22.7268 27.8908 22.7268C29.9212 22.7268 31.5731 21.0835 31.5731 19.0635C31.5731 17.2277 30.1974 15.6686 28.3712 15.4315L27.8846 13.984C27.8866 13.984 27.8886 13.9839 27.8907 13.9839C30.7101 13.9839 33.0038 16.2626 33.0038 19.0636C33.0038 21.8645 30.7102 24.1431 27.8908 24.1431Z" fill="black"/>
</svg>
