<svg width="37" height="22" viewBox="0 0 37 22" fill="none" xmlns="http://www.w3.org/2000/svg">
<path d="M36.9385 9.67019C36.9385 9.17625 36.7486 8.7095 36.4036 8.35601L28.8358 0.600302C28.4839 0.23961 27.993 0.0327148 27.489 0.0327148H7.3331C7.04063 0.0327148 6.80351 0.269833 6.80351 0.562312C6.80351 0.854791 7.04063 1.09191 7.3331 1.09191H21.592V14.7282H12.4582C11.6919 13.8895 10.587 13.3621 9.36069 13.3621C8.13435 13.3621 7.0294 13.8895 6.26311 14.7282H1.84386V1.24472C1.84386 1.16047 1.91243 1.09191 1.99667 1.09191H5.21471C5.50719 1.09191 5.74431 0.854791 5.74431 0.562312C5.74431 0.269833 5.50719 0.0327148 5.21471 0.0327148H1.99667C1.32839 0.0327148 0.784668 0.576434 0.784668 1.24472V16.7324C0.784668 17.4621 1.37831 18.0558 2.10796 18.0558H5.2097C5.47224 20.1025 7.23297 21.6903 9.36061 21.6903C11.4883 21.6903 13.249 20.1025 13.5115 18.0558H20.0924C20.3849 18.0558 20.622 17.8186 20.622 17.5262C20.622 17.2337 20.3849 16.9966 20.0924 16.9966H13.5115C13.4568 16.5701 13.3373 16.1637 13.1627 15.7873H25.5924C25.4178 16.1637 25.2982 16.5701 25.2436 16.9966H22.2108C21.9183 16.9966 21.6812 17.2337 21.6812 17.5262C21.6812 17.8186 21.9183 18.0558 22.2108 18.0558H25.2436C25.5061 20.1025 27.2669 21.6903 29.3945 21.6903C31.5222 21.6903 33.2829 20.1025 33.5454 18.0558H35.6152C36.3448 18.0558 36.9385 17.4621 36.9385 16.7324V9.67019ZM1.84386 16.7324V15.7873H5.5586C5.38397 16.1637 5.2645 16.5701 5.20977 16.9966H2.10796C1.96235 16.9966 1.84386 16.8781 1.84386 16.7324ZM9.36069 20.6311C7.6366 20.6311 6.23394 19.2382 6.23394 17.5262C6.23394 15.8141 7.6366 14.4212 9.36069 14.4212C11.0848 14.4212 12.4874 15.8141 12.4874 17.5262C12.4874 19.2382 11.0848 20.6311 9.36069 20.6311ZM27.4889 1.09191C27.5716 1.09191 27.6533 1.10462 27.7314 1.12884C27.8616 1.16916 27.9815 1.24147 28.0776 1.34004L34.043 7.4535H26.4721C26.2387 7.4535 26.0489 7.26362 26.0489 7.03025V1.09198H27.4889V1.09191ZM22.6512 14.7282V1.09191H24.9897V7.03018C24.9897 7.84759 25.6547 8.51263 26.4721 8.51263H35.0765L35.6455 9.09575C35.6988 9.1504 35.7432 9.21156 35.7789 9.27694H34.3476C33.6848 9.27694 33.1455 9.81621 33.1455 10.479V11.9231C33.1455 12.5859 33.6847 13.1251 34.3476 13.1251H35.8793V14.7282H32.5124C32.5059 14.7282 32.4994 14.729 32.4929 14.7292C31.7266 13.8899 30.6213 13.3621 29.3945 13.3621C28.1681 13.3621 27.0632 13.8895 26.2969 14.7282H22.6512ZM35.8793 10.3361V12.0659H34.3477C34.2689 12.0659 34.2048 12.0018 34.2048 11.923V10.4789C34.2048 10.4001 34.2688 10.3361 34.3477 10.3361H35.8793V10.3361ZM29.3945 20.6311C27.6704 20.6311 26.2678 19.2382 26.2678 17.5262C26.2678 15.8141 27.6704 14.4212 29.3945 14.4212C31.1186 14.4212 32.5212 15.8141 32.5212 17.5262C32.5212 19.2382 31.1186 20.6311 29.3945 20.6311ZM35.8793 16.7324C35.8793 16.8781 35.7608 16.9966 35.6152 16.9966H33.5454C33.4907 16.5701 33.3712 16.1637 33.1966 15.7873H35.8793V16.7324Z" fill="black"/>
<path d="M29.3945 15.7214C28.3951 15.7214 27.582 16.531 27.582 17.5262C27.582 18.5213 28.3951 19.3309 29.3945 19.3309C30.3938 19.3309 31.2069 18.5213 31.2069 17.5262C31.2069 16.531 30.3938 15.7214 29.3945 15.7214ZM29.3945 18.2718C28.9791 18.2718 28.6412 17.9373 28.6412 17.5262C28.6412 17.1151 28.9791 16.7807 29.3945 16.7807C29.8098 16.7807 30.1477 17.1152 30.1477 17.5262C30.1477 17.9373 29.8098 18.2718 29.3945 18.2718Z" fill="black"/>
<path d="M9.36076 15.7214C8.36138 15.7214 7.54834 16.531 7.54834 17.5262C7.54834 18.5213 8.36138 19.3309 9.36076 19.3309C10.3601 19.3309 11.1732 18.5213 11.1732 17.5262C11.1731 16.531 10.3601 15.7214 9.36076 15.7214ZM9.36076 18.2718C8.94542 18.2718 8.60753 17.9373 8.60753 17.5262C8.60753 17.1151 8.94542 16.7807 9.36076 16.7807C9.77604 16.7807 10.114 17.1152 10.114 17.5262C10.1139 17.9373 9.77604 18.2718 9.36076 18.2718Z" fill="black"/>
<path d="M7.842 11.327H15.7578C16.3303 11.327 16.7961 10.8613 16.7961 10.2888V4.7546C16.7961 4.18207 16.3303 3.71631 15.7578 3.71631H7.842C7.26954 3.71631 6.80371 4.18207 6.80371 4.7546V10.2888C6.80378 10.8614 7.26954 11.327 7.842 11.327ZM7.86298 4.77564H15.7369V10.2679H7.86298V4.77564Z" fill="black"/>
<path d="M13.9393 5.97046H9.66046C9.36798 5.97046 9.13086 6.20758 9.13086 6.50006C9.13086 6.79254 9.36798 7.02965 9.66046 7.02965H13.9393C14.2318 7.02965 14.4689 6.79254 14.4689 6.50006C14.4689 6.20758 14.2318 5.97046 13.9393 5.97046Z" fill="black"/>
<path d="M13.9393 8.01367H9.66046C9.36798 8.01367 9.13086 8.25079 9.13086 8.54327C9.13086 8.83575 9.36798 9.07287 9.66046 9.07287H13.9393C14.2318 9.07287 14.4689 8.83575 14.4689 8.54327C14.4689 8.25079 14.2318 8.01367 13.9393 8.01367Z" fill="black"/>
</svg>
