<svg width="37" height="23" viewBox="0 0 37 23" fill="none" xmlns="http://www.w3.org/2000/svg">
<path d="M36.2631 15.7959V12.1891C36.2631 10.4275 34.8299 8.99293 33.0685 8.99127L29.9463 8.98787C29.6502 8.98758 29.3688 8.8596 29.1739 8.63673L23.4818 2.12581C22.8401 1.37418 21.9054 0.943115 20.9171 0.943115H16.5855C16.2861 0.943115 16.0435 1.18578 16.0435 1.48511C16.0435 1.78443 16.2861 2.0271 16.5855 2.0271H20.9171C21.5877 2.0271 22.222 2.31963 22.6616 2.83445L22.9766 3.19484H12.9772C12.6442 3.19484 12.3263 3.338 12.1053 3.5876C12.0603 3.63833 12.0253 3.69709 12.002 3.76082L9.95719 9.35108C9.89634 9.51729 9.92055 9.70279 10.022 9.84783C10.1234 9.99287 10.2893 10.0792 10.4662 10.0792H10.4664L17.9581 10.0764V15.7816H12.2542C11.5243 14.6213 10.229 13.8477 8.75462 13.8477C7.27975 13.8477 5.98388 14.622 5.25422 15.7829C5.24526 15.7825 5.23637 15.7816 5.22726 15.7816H1.91461C1.85267 15.5796 1.82088 15.3696 1.82088 15.1552V14.7053H3.36086C4.25442 14.7053 4.98134 13.9783 4.98134 13.0848V12.2776C4.98134 11.3841 4.25435 10.6571 3.36086 10.6571H2.19962C2.21046 10.6419 2.22065 10.6263 2.23192 10.6113C2.61038 10.1086 3.23085 9.81379 3.8975 9.82637L7.27209 9.86228C7.27404 9.86236 7.27599 9.86236 7.27794 9.86236C7.49908 9.86236 7.69831 9.72787 7.78084 9.52227L10.435 2.91069C10.8664 2.35627 11.5368 2.02717 12.2412 2.02717H14.4175C14.7168 2.02717 14.9595 1.7845 14.9595 1.48518C14.9595 1.18586 14.7168 0.943187 14.4175 0.943187H12.2412C11.1711 0.943187 10.1545 1.45837 9.52179 2.32144C9.49491 2.35808 6.913 8.77447 6.913 8.77447L3.91253 8.74253C2.90248 8.72511 1.95233 9.18039 1.36589 9.95948C1.20828 10.1688 1.07813 10.397 0.979055 10.6377C0.818336 11.0281 0.73682 11.4404 0.73682 11.8632V15.1552C0.73682 15.3689 0.758211 15.5797 0.79933 15.7864C0.350922 15.8324 0 16.2124 0 16.6729V18.3016C0 18.7931 0.399846 19.1929 0.891252 19.1929H4.82156C5.35149 20.8517 6.91401 22.057 8.75455 22.057C10.5952 22.057 12.1577 20.8517 12.6876 19.1929H17.4858C17.7851 19.1929 18.0277 18.9503 18.0277 18.6509C18.0277 18.3516 17.7851 18.1089 17.4858 18.1089H12.8767C12.8787 18.0569 12.8807 18.0049 12.8807 17.9523C12.8807 17.5761 12.8285 17.2119 12.7328 16.8655H23.3381C23.2424 17.2119 23.1902 17.5761 23.1902 17.9523C23.1902 18.0049 23.1922 18.0569 23.1942 18.1089H19.6536C19.3543 18.1089 19.1117 18.3516 19.1117 18.6509C19.1117 18.9503 19.3543 19.1929 19.6536 19.1929H23.3133C23.3365 19.1929 23.3591 19.191 23.3816 19.1882C23.91 20.8494 25.4738 22.057 27.3163 22.057C29.1569 22.057 30.7194 20.8517 31.2492 19.1929H36.1086C36.6001 19.1929 36.9999 18.7931 36.9999 18.3016V16.6729C37 16.2342 36.6811 15.8693 36.2631 15.7959ZM3.89729 12.2776V13.0848C3.89729 13.3807 3.65657 13.6213 3.36079 13.6213H1.8208V11.8631C1.8208 11.8223 1.82232 11.7816 1.82456 11.741H3.36071C3.65664 11.741 3.89729 11.9818 3.89729 12.2776ZM1.08398 18.1089V16.8655H4.7764C4.68064 17.2119 4.62847 17.5761 4.62847 17.9523C4.62847 18.0049 4.63049 18.0569 4.63244 18.1089H1.08398ZM8.75455 20.973C7.30071 20.973 6.08245 19.9548 5.78335 18.599C5.7798 18.5614 5.77251 18.5249 5.76167 18.4899C5.72994 18.3153 5.71245 18.1358 5.71245 17.9523C5.71245 16.2866 7.07712 14.9316 8.75455 14.9316C10.432 14.9316 11.7967 16.2866 11.7967 17.9523C11.7967 19.6179 10.432 20.973 8.75455 20.973ZM35.1791 12.1891V12.3092H33.6836C33.1369 12.3092 32.6922 11.8645 32.6922 11.3179V10.0748L33.0674 10.0752C34.2318 10.0764 35.1791 11.0247 35.1791 12.1891ZM28.0417 8.98859L19.042 8.99199V4.27882H23.899C23.9071 4.27882 23.9152 4.27796 23.9232 4.2776L28.0417 8.98859ZM11.2416 8.99488L12.9664 4.27955C12.9699 4.27904 12.9736 4.27875 12.9772 4.27875H17.958V8.99235L11.2416 8.99488ZM19.042 15.7815V10.0759L31.6083 10.0736V11.3178C31.6083 12.4621 32.5393 13.3931 33.6836 13.3931H35.1791V15.7814H30.8365C30.8297 15.7814 30.8232 15.7821 30.8165 15.7824C30.0868 14.6217 28.7911 13.8475 27.3163 13.8475C25.842 13.8475 24.5466 14.6213 23.8168 15.7814H19.042V15.7815ZM27.3163 20.973C25.6389 20.973 24.2742 19.618 24.2742 17.9523C24.2742 16.2867 25.6389 14.9316 27.3163 14.9316C28.9938 14.9316 30.3584 16.2867 30.3584 17.9523C30.3584 19.6179 28.9937 20.973 27.3163 20.973ZM35.916 18.1089H31.4384C31.4403 18.0569 31.4423 18.0049 31.4423 17.9523C31.4423 17.5761 31.3902 17.2119 31.2944 16.8655H35.916V18.1089Z" fill="black"/>
<path d="M27.3161 16.1604C26.3239 16.1604 25.5166 16.9643 25.5166 17.9524C25.5166 18.9405 26.3238 19.7443 27.3161 19.7443C28.3083 19.7443 29.1155 18.9405 29.1155 17.9524C29.1155 16.9643 28.3082 16.1604 27.3161 16.1604ZM27.3161 18.6603C26.9216 18.6603 26.6006 18.3427 26.6006 17.9523C26.6006 17.5619 26.9215 17.2443 27.3161 17.2443C27.7106 17.2443 28.0315 17.5619 28.0315 17.9523C28.0315 18.3427 27.7105 18.6603 27.3161 18.6603Z" fill="black"/>
<path d="M8.75449 16.1604C7.76228 16.1604 6.95508 16.9643 6.95508 17.9524C6.95508 18.9405 7.76228 19.7443 8.75449 19.7443C9.7467 19.7443 10.554 18.9405 10.554 17.9524C10.554 16.9643 9.7467 16.1604 8.75449 16.1604ZM8.75449 18.6603C8.35999 18.6603 8.03906 18.3427 8.03906 17.9523C8.03906 17.5619 8.35999 17.2443 8.75449 17.2443C9.14906 17.2443 9.46999 17.5619 9.46999 17.9523C9.46999 18.3427 9.14906 18.6603 8.75449 18.6603Z" fill="black"/>
<path d="M21.749 10.9373H20.9014C20.602 10.9373 20.3594 11.1799 20.3594 11.4792C20.3594 11.7786 20.602 12.0212 20.9014 12.0212H21.749C22.0484 12.0212 22.291 11.7786 22.291 11.4792C22.291 11.1799 22.0484 10.9373 21.749 10.9373Z" fill="black"/>
<path d="M11.7104 12.0212C12.0097 12.0212 12.2524 11.7786 12.2524 11.4792C12.2524 11.1799 12.0097 10.9373 11.7104 10.9373H10.8628C10.5635 10.9373 10.3208 11.1799 10.3208 11.4792C10.3208 11.7786 10.5635 12.0212 10.8628 12.0212H11.7104Z" fill="black"/>
</svg>
