<svg width="32" height="32" viewBox="0 0 32 32" fill="none" xmlns="http://www.w3.org/2000/svg">
<g clip-path="url(#clip0)">
<path d="M6.40018 24C5.8135 24 5.3335 24.48 5.3335 25.0667C5.3335 25.6534 5.8135 26.1334 6.40018 26.1334C6.98687 26.1334 7.46687 25.6534 7.46687 25.0667C7.46687 24.48 6.98687 24 6.40018 24Z" fill="black"/>
<path d="M20.2664 24C19.6797 24 19.1997 24.48 19.1997 25.0667C19.1997 25.6534 19.6797 26.1334 20.2664 26.1334C20.8531 26.1334 21.3331 25.6534 21.3331 25.0667C21.3331 24.48 20.853 24 20.2664 24Z" fill="black"/>
<path d="M31.4667 18.1333H29.8667V16.5333C29.8667 16.2133 29.6534 15.9999 29.3334 15.9999C29.0134 15.9999 28.8001 16.2133 28.8001 16.5333V18.1333H26.6667V5.27995C26.6667 4.10664 25.7601 3.19995 24.6401 3.19995H2.08C0.906687 3.19995 0 4.10664 0 5.27995V18.1333V19.1999V23.7333C0 24.7466 0.853312 25.5999 1.86669 25.5999H2.70438C2.95906 27.4221 4.50144 28.7999 6.40006 28.7999C8.29869 28.7999 9.84106 27.4221 10.0957 25.5999H16.5711C16.8258 27.4221 18.3681 28.7999 20.2668 28.7999C22.1654 28.7999 23.7077 27.4221 23.9624 25.5999H26.6667V19.1999H31.4667C31.7867 19.1999 32.0001 18.9866 32.0001 18.6666C32 18.3466 31.7867 18.1333 31.4667 18.1333ZM1.06669 13.8666H8.53337C8.85337 13.8666 9.06669 13.6533 9.06669 13.3333C9.06669 13.0133 8.85337 12.8 8.53337 12.8H1.06669V11.2H6.4C6.72 11.2 6.93331 10.9867 6.93331 10.6667C6.93331 10.3467 6.72 10.1334 6.4 10.1334H1.06669V5.27995C1.06669 4.69326 1.49337 4.26664 2.08 4.26664H24.5867C25.1734 4.26664 25.6 4.74664 25.6 5.27995V18.1333H1.06669V13.8666ZM6.4 27.7333C4.90669 27.7333 3.73331 26.5599 3.73331 25.0666C3.73331 23.5733 4.90663 22.3999 6.4 22.3999C7.89331 22.3999 9.06669 23.5732 9.06669 25.0666C9.06669 26.5599 7.89331 27.7333 6.4 27.7333ZM20.2667 27.7333C18.7734 27.7333 17.6 26.5599 17.6 25.0666C17.6 23.5733 18.7733 22.3999 20.2667 22.3999C21.76 22.3999 22.9334 23.5732 22.9334 25.0666C22.9333 26.5599 21.76 27.7333 20.2667 27.7333ZM25.6 24.5333H23.9623C23.7076 22.7111 22.1652 21.3333 20.2666 21.3333C20.258 21.3333 20.2495 21.3338 20.2409 21.3339C20.2316 21.3338 20.2225 21.3333 20.2133 21.3333C18.3466 21.3333 16.8 22.7199 16.5333 24.5333H10.0957C9.85688 22.8246 8.48563 21.5073 6.75019 21.3498C6.7375 21.3486 6.72463 21.3479 6.71187 21.3469C6.66819 21.3434 6.62456 21.3398 6.58044 21.3377C6.52063 21.3348 6.4605 21.3332 6.4 21.3332C6.3395 21.3332 6.27938 21.3348 6.21956 21.3377C6.17544 21.3398 6.13181 21.3433 6.08813 21.3469C6.07538 21.3479 6.0625 21.3486 6.04981 21.3498C4.31437 21.5073 2.94313 22.8246 2.70431 24.5333H1.86669C1.44 24.5333 1.06669 24.1599 1.06669 23.7333V19.1999H25.6V24.5333Z" fill="black"/>
</g>
<defs>
<clipPath id="clip0">
<rect width="32" height="32" fill="white"/>
</clipPath>
</defs>
</svg>
