<svg width="20" height="20" viewBox="0 0 20 20" fill="none" xmlns="http://www.w3.org/2000/svg">
<path d="M6.85012 3.30042H4.4923C4.07541 3.30042 3.67559 3.46602 3.3808 3.76081C3.08602 4.05559 2.92041 4.45541 2.92041 4.8723V7.23013M17.0674 7.23013V4.8723C17.0674 4.45541 16.9018 4.05559 16.607 3.76081C16.3122 3.46602 15.9124 3.30042 15.4955 3.30042H13.1377M13.1377 17.4474H15.4955C15.9124 17.4474 16.3122 17.2818 16.607 16.987C16.9018 16.6922 17.0674 16.2924 17.0674 15.8755V13.5177M2.92041 13.5177V15.8755C2.92041 16.2924 3.08602 16.6922 3.3808 16.987C3.67559 17.2818 4.07541 17.4474 4.4923 17.4474H6.85012" stroke="#2B2B2B" stroke-width="2.09585" stroke-linecap="round" stroke-linejoin="round"/>
</svg>
