<svg width="161" height="16" viewBox="0 0 161 16" fill="none" xmlns="http://www.w3.org/2000/svg">
<path d="M160.354 8.35355C160.549 8.15829 160.549 7.84171 160.354 7.64645L157.172 4.46447C156.976 4.2692 156.66 4.2692 156.464 4.46447C156.269 4.65973 156.269 4.97631 156.464 5.17157L159.293 8L156.464 10.8284C156.269 11.0237 156.269 11.3403 156.464 11.5355C156.66 11.7308 156.976 11.7308 157.172 11.5355L160.354 8.35355ZM0 8.5H3.07692V7.5H0V8.5ZM9.23077 8.5H15.3846V7.5H9.23077V8.5ZM21.5385 8.5H27.6923V7.5H21.5385V8.5ZM33.8462 8.5H40V7.5H33.8462V8.5ZM46.1538 8.5H52.3077V7.5H46.1538V8.5ZM58.4615 8.5H64.6154V7.5H58.4615V8.5ZM70.7692 8.5H76.9231V7.5H70.7692V8.5ZM83.0769 8.5H89.2308V7.5H83.0769V8.5ZM95.3846 8.5H101.538V7.5H95.3846V8.5ZM107.692 8.5H113.846V7.5H107.692V8.5ZM120 8.5H126.154V7.5H120V8.5ZM132.308 8.5H138.462V7.5H132.308V8.5ZM144.615 8.5H150.769V7.5H144.615V8.5ZM156.923 8.5H160V7.5H156.923V8.5ZM160.707 8.70711C161.098 8.31658 161.098 7.68342 160.707 7.29289L154.343 0.928932C153.953 0.538408 153.319 0.538408 152.929 0.928932C152.538 1.31946 152.538 1.95262 152.929 2.34315L158.586 8L152.929 13.6569C152.538 14.0474 152.538 14.6805 152.929 15.0711C153.319 15.4616 153.953 15.4616 154.343 15.0711L160.707 8.70711ZM0 9H3.07692V7H0V9ZM9.23077 9H15.3846V7H9.23077V9ZM21.5385 9H27.6923V7H21.5385V9ZM33.8462 9H40V7H33.8462V9ZM46.1538 9H52.3077V7H46.1538V9ZM58.4615 9H64.6154V7H58.4615V9ZM70.7692 9H76.9231V7H70.7692V9ZM83.0769 9H89.2308V7H83.0769V9ZM95.3846 9H101.538V7H95.3846V9ZM107.692 9H113.846V7H107.692V9ZM120 9H126.154V7H120V9ZM132.308 9H138.462V7H132.308V9ZM144.615 9H150.769V7H144.615V9ZM156.923 9H160V7H156.923V9Z" fill="#828282"/>
</svg>
