<svg width="120" height="120" viewBox="0 0 120 120" fill="none" xmlns="http://www.w3.org/2000/svg">
<path d="M14.3984 45.7097H105.602V114.088H14.3984V45.7097Z" fill="#FDA400"/>
<path d="M26.8555 58.1672H93.1433V114.088H26.8555V58.1672Z" fill="#E0F3FC"/>
<path d="M38.6953 92.7825H81.3056V114.088H38.6953V92.7825Z" fill="#FAA875"/>
<path d="M46.4121 92.7825H52.2809V100.38H46.4121V92.7825Z" fill="#FFC329"/>
<path d="M67.7188 92.7825H73.5875V100.38H67.7188V92.7825Z" fill="#FFC329"/>
<path d="M49.3477 71.4778H70.6523V92.7834H49.3477V71.4778Z" fill="#FABC91"/>
<path d="M57.0664 71.4778H62.9352V79.0762H57.0664V71.4778Z" fill="#FFC329"/>
<path d="M60.0002 5.91187L5.91211 27.2409V45.7087H114.088V27.2409L60.0002 5.91187Z" fill="#FFC329"/>
<path d="M59.9998 34.3931C63.7039 34.3931 66.7067 31.3904 66.7067 27.6862C66.7067 23.9821 63.7039 20.9794 59.9998 20.9794C56.2957 20.9794 53.293 23.9821 53.293 27.6862C53.293 31.3904 56.2957 34.3931 59.9998 34.3931Z" fill="#E0F3FC"/>
<path d="M105.602 86.6832C105.166 86.6832 104.749 86.8561 104.441 87.1638C104.134 87.4714 103.961 87.8887 103.961 88.3239V92.5426C103.961 92.9777 104.134 93.395 104.441 93.7027C104.749 94.0104 105.166 94.1832 105.602 94.1832C106.037 94.1832 106.454 94.0104 106.762 93.7027C107.069 93.395 107.242 92.9777 107.242 92.5426V88.3239C107.242 87.8887 107.069 87.4714 106.762 87.1638C106.454 86.8561 106.037 86.6832 105.602 86.6832Z" fill="black"/>
<path d="M114.689 25.7157L60.6021 4.3866C60.2152 4.23474 59.7852 4.23474 59.3984 4.3866L28.4955 16.5741C28.0908 16.7337 27.766 17.0476 27.5926 17.4467C27.4193 17.8458 27.4115 18.2974 27.5712 18.7022C27.7308 19.107 28.0447 19.4318 28.4438 19.6052C28.8429 19.7785 29.2945 19.7862 29.6993 19.6266L60.0002 7.67629L112.447 28.3585V44.0691H7.55273V28.3585L21.5627 22.8329C21.7678 22.7573 21.9558 22.6415 22.1155 22.4923C22.2752 22.343 22.4035 22.1634 22.4929 21.9639C22.5822 21.7644 22.6308 21.5491 22.6357 21.3306C22.6407 21.112 22.6019 20.8947 22.5217 20.6914C22.4415 20.488 22.3215 20.3028 22.1686 20.1465C22.0158 19.9902 21.8333 19.866 21.6319 19.7812C21.4304 19.6964 21.214 19.6528 20.9954 19.6528C20.7768 19.6528 20.5604 19.6965 20.359 19.7813L5.31023 25.7157C5.00393 25.8365 4.74106 26.0466 4.5558 26.3188C4.37055 26.591 4.27148 26.9127 4.27148 27.2419V45.7107C4.27148 46.1458 4.44434 46.5631 4.75201 46.8708C5.05969 47.1784 5.47699 47.3513 5.91211 47.3513H12.7559V114.088C12.7559 114.523 12.9287 114.941 13.2364 115.248C13.5441 115.556 13.9614 115.729 14.3965 115.729H105.6C106.035 115.729 106.453 115.556 106.76 115.248C107.068 114.941 107.241 114.523 107.241 114.088V101.201C107.241 100.766 107.068 100.349 106.76 100.041C106.453 99.7335 106.035 99.5607 105.6 99.5607C105.165 99.5607 104.748 99.7335 104.44 100.041C104.132 100.349 103.96 100.766 103.96 101.201V112.451H94.7815V58.17C94.7816 57.9546 94.7393 57.7412 94.6569 57.5421C94.5744 57.3429 94.4536 57.162 94.3012 57.0097C94.1489 56.8573 93.9679 56.7365 93.7688 56.6541C93.5697 56.5716 93.3563 56.5293 93.1409 56.5294H26.8559C26.4207 56.5294 26.0034 56.7023 25.6958 57.0099C25.3881 57.3176 25.2152 57.7349 25.2152 58.17V112.451H16.039V47.3504H103.961V79.2704C103.961 79.7055 104.134 80.1228 104.442 80.4305C104.75 80.7381 105.167 80.911 105.602 80.911C106.037 80.911 106.455 80.7381 106.762 80.4305C107.07 80.1228 107.243 79.7055 107.243 79.2704V47.3504H114.086C114.302 47.3505 114.515 47.3081 114.714 47.2257C114.914 47.1433 115.094 47.0225 115.247 46.8701C115.399 46.7177 115.52 46.5368 115.602 46.3377C115.685 46.1386 115.727 45.9252 115.727 45.7097V27.241C115.727 26.9119 115.628 26.5905 115.443 26.3184C115.258 26.0464 114.995 25.8363 114.689 25.7157ZM61.294 73.1175V77.43H58.7065V73.1175H61.294ZM57.0659 80.7113H62.9346C63.3697 80.7113 63.787 80.5384 64.0947 80.2308C64.4024 79.9231 64.5752 79.5058 64.5752 79.0707V73.1175H69.0124V91.1419H50.988V73.1175H55.4252V79.0753C55.4249 79.291 55.467 79.5047 55.5493 79.7041C55.6316 79.9034 55.7524 80.0846 55.9048 80.2373C56.0571 80.3899 56.2381 80.511 56.4374 80.5936C56.6366 80.6763 56.8502 80.7188 57.0659 80.7188V80.7113ZM79.6652 94.4185V112.442H61.6409V94.4232H66.0771V100.38C66.0771 100.815 66.25 101.232 66.5576 101.54C66.8653 101.848 67.2826 102.021 67.7177 102.021H73.5874C74.0225 102.021 74.4398 101.848 74.7475 101.54C75.0552 101.232 75.228 100.815 75.228 100.38V94.4232L79.6652 94.4185ZM71.9468 98.731H69.3584V94.4185H71.9468V98.731ZM50.6421 94.4185V98.731H48.0537V94.4185H50.6421ZM46.413 102.012H52.2827C52.4982 102.012 52.7115 101.97 52.9106 101.887C53.1096 101.805 53.2905 101.684 53.4428 101.532C53.5952 101.379 53.716 101.198 53.7985 100.999C53.8809 100.8 53.9234 100.587 53.9234 100.372V94.4147H58.3596V112.438H40.3352V94.4232H44.7724V100.38C44.7724 100.815 44.9453 101.232 45.2529 101.54C45.5606 101.848 45.9779 102.021 46.413 102.021V102.012ZM28.5002 59.8125H91.5002V112.451H82.9465V92.7825C82.9465 92.3474 82.7736 91.9301 82.466 91.6224C82.1583 91.3148 81.741 91.1419 81.3059 91.1419H72.2937V71.4769C72.2937 71.0418 72.1208 70.6245 71.8131 70.3168C71.5055 70.0091 71.0882 69.8363 70.653 69.8363H49.3474C48.9123 69.8363 48.495 70.0091 48.1873 70.3168C47.8796 70.6245 47.7068 71.0418 47.7068 71.4769V91.1419H38.6946C38.2595 91.1419 37.8422 91.3148 37.5345 91.6224C37.2268 91.9301 37.054 92.3474 37.054 92.7825V112.447H28.5002V59.8125Z" fill="black"/>
<path d="M68.3438 27.6853C68.3438 26.0351 67.8544 24.4219 66.9376 23.0498C66.0208 21.6776 64.7176 20.6082 63.193 19.9767C61.6684 19.3452 59.9907 19.1799 58.3722 19.5019C56.7537 19.8238 55.267 20.6185 54.1001 21.7854C52.9332 22.9523 52.1385 24.439 51.8166 26.0575C51.4946 27.6761 51.6599 29.3537 52.2914 30.8783C52.9229 32.4029 53.9923 33.7061 55.3645 34.6229C56.7366 35.5397 58.3498 36.0291 60 36.0291C62.2119 36.0258 64.3323 35.1457 65.8964 33.5817C67.4604 32.0176 68.3405 29.8972 68.3438 27.6853ZM54.93 27.6853C54.93 26.684 55.2269 25.7053 55.7832 24.8727C56.3395 24.0402 57.1301 23.3913 58.0552 23.0082C58.9802 22.625 59.9981 22.5247 60.9801 22.7201C61.9622 22.9154 62.8642 23.3976 63.5722 24.1056C64.2802 24.8136 64.7624 25.7156 64.9577 26.6977C65.1531 27.6797 65.0528 28.6976 64.6696 29.6226C64.2865 30.5477 63.6376 31.3383 62.8051 31.8946C61.9726 32.4509 60.9938 32.7478 59.9925 32.7478C58.6519 32.7433 57.3676 32.2083 56.4204 31.2597C55.4731 30.311 54.94 29.0259 54.9375 27.6853H54.93Z" fill="black"/>
</svg>
