<svg width="120" height="120" viewBox="0 0 120 120" fill="none" xmlns="http://www.w3.org/2000/svg">
<g clip-path="url(#clip0_886:3629)">
<path d="M67.9685 63.1014H99.3523L86.7148 44.4751H34.9291L18.9785 76.2264H46.406L67.9685 63.1014Z" fill="#77718C"/>
<path d="M31.5805 36.272H88.8215C90.3133 36.272 91.7441 36.8646 92.799 37.9195C93.8539 38.9744 94.4465 40.4051 94.4465 41.897V44.4751H31.5805C30.819 44.4751 30.0886 44.1726 29.55 43.634C29.0115 43.0955 28.709 42.3651 28.709 41.6035V39.1445C28.7089 38.7673 28.783 38.3938 28.9273 38.0453C29.0716 37.6968 29.2831 37.3801 29.5497 37.1134C29.8164 36.8466 30.133 36.635 30.4814 36.4906C30.8299 36.3463 31.2034 36.272 31.5805 36.272Z" fill="#F5F5F5"/>
<path d="M75.5859 55.547H94.2262L86.7187 44.4751H66.2109V46.172C66.2109 48.6584 67.1987 51.0429 68.9568 52.8011C70.715 54.5593 73.0995 55.547 75.5859 55.547Z" fill="#E0F3FC"/>
<path d="M1.64062 90.9919L8.4375 98.9691H82.2712C87.2822 98.9691 92.2079 97.6734 96.5704 95.208C100.933 92.7425 104.584 89.191 107.168 84.8982H4.44563L1.64062 90.9919Z" fill="#F5F5F5"/>
<path d="M118.359 63.1013H67.9684L46.4059 76.2263H8.43719L4.44531 84.8982H107.168C107.519 84.3151 107.851 83.7169 108.164 83.1038L118.359 63.1013Z" fill="#FFC329"/>
<path d="M50.2734 44.4751H58.9388V53.1404H50.2734V44.4751Z" fill="#E0F3FC"/>
<path d="M31.1406 68.7263H44.3041L53.545 63.1013H33.9662L31.1406 68.7263Z" fill="#FFC329"/>
<path d="M46.5084 21.031H34.9219V36.2719H65.2734L46.5084 21.031Z" fill="#FFC329"/>
<path d="M100.518 73.516C100.518 74.3071 100.284 75.0804 99.8447 75.7382C99.4054 76.396 98.7808 76.9088 98.05 77.2116C97.3193 77.5145 96.5151 77.5938 95.7392 77.4396C94.9634 77.2854 94.2507 76.9046 93.6913 76.3453C93.1318 75.786 92.7508 75.0734 92.5964 74.2975C92.4421 73.5217 92.5212 72.7175 92.8239 71.9867C93.1266 71.2558 93.6392 70.6312 94.2969 70.1917C94.9546 69.7522 95.7279 69.5176 96.5189 69.5176C97.5794 69.5176 98.5966 69.9388 99.3466 70.6886C100.097 71.4385 100.518 72.4555 100.518 73.516Z" fill="#E0F3FC"/>
<path d="M119.758 62.25C119.612 62.0105 119.406 61.8126 119.161 61.6754C118.916 61.5381 118.64 61.4661 118.36 61.4662H100.219L89.8127 46.1156H94.4495C94.665 46.1157 94.8784 46.0734 95.0775 45.991C95.2766 45.9086 95.4575 45.7877 95.6099 45.6354C95.7623 45.483 95.8831 45.3021 95.9655 45.103C96.0479 44.9039 96.0903 44.6905 96.0901 44.475V41.8969C96.0879 39.9706 95.3217 38.1238 93.9596 36.7618C92.5975 35.3997 90.7508 34.6335 88.8245 34.6312H65.8558L47.5436 19.7578C47.2517 19.5215 46.8878 19.3922 46.5123 19.3912H34.922C34.7065 19.3911 34.4931 19.4335 34.294 19.5159C34.0949 19.5983 33.914 19.7191 33.7617 19.8715C33.6093 20.0239 33.4884 20.2048 33.406 20.4039C33.3236 20.603 33.2813 20.8164 33.2814 21.0319V34.6312H31.5808C30.3844 34.6327 29.2374 35.1087 28.3915 35.9548C27.5456 36.8009 27.0698 37.9479 27.0686 39.1444V41.6034C27.0698 42.7997 27.5456 43.9467 28.3915 44.7926C29.2375 45.6386 30.3845 46.1144 31.5808 46.1156H32.2698L17.9673 74.5865H8.43765C8.12392 74.5863 7.81672 74.6762 7.55251 74.8453C7.28829 75.0145 7.07815 75.2559 6.94703 75.5409L0.150152 90.3065C0.0193327 90.5908 -0.0274068 90.9066 0.0154526 91.2166C0.058312 91.5266 0.18898 91.8178 0.392027 92.0559L7.1889 100.032C7.34284 100.213 7.53424 100.358 7.74986 100.458C7.96548 100.557 8.20016 100.609 8.43765 100.609H82.2714C87.5619 100.594 92.7598 99.2187 97.3657 96.6157C101.972 94.0127 105.831 90.2692 108.573 85.7447L108.58 85.7297L108.588 85.7203C108.588 85.7203 109.3 84.4875 109.627 83.8453L119.822 63.8437C119.948 63.5946 120.008 63.3175 119.997 63.0386C119.986 62.7597 119.904 62.4883 119.758 62.25ZM36.5626 22.6725H45.9264L60.6508 34.6312H36.5626V22.6725ZM30.3498 41.6034V39.1444C30.3501 38.8179 30.4798 38.5048 30.7106 38.2739C30.9414 38.043 31.2543 37.913 31.5808 37.9125H88.8227C89.879 37.9137 90.8917 38.3339 91.6387 39.0808C92.3856 39.8278 92.8058 40.8405 92.807 41.8969V42.8344H31.5808C31.2544 42.8341 30.9414 42.7043 30.7106 42.4736C30.4799 42.2428 30.3501 41.9298 30.3498 41.6034ZM51.9123 46.1156H57.2964V51.5006H51.9142L51.9123 46.1156ZM35.9392 46.1156H48.633V53.1412C48.633 53.5764 48.8058 53.9937 49.1135 54.3013C49.4212 54.609 49.8385 54.7819 50.2736 54.7819H58.9389C59.374 54.7819 59.7913 54.609 60.099 54.3013C60.4067 53.9937 60.5795 53.5764 60.5795 53.1412V46.1156H64.5705V46.1719C64.5676 47.6447 64.8622 49.1029 65.4367 50.459C65.6062 50.8599 65.9279 51.1769 66.3311 51.3405C66.7344 51.5041 67.1861 51.5008 67.5869 51.3314C67.9877 51.1619 68.3048 50.8402 68.4684 50.437C68.632 50.0337 68.6287 49.582 68.4592 49.1812C68.0564 48.2292 67.8498 47.2056 67.8517 46.1719V46.1156H85.8452L91.1317 53.9062H76.9923C76.5572 53.9062 76.1399 54.0791 75.8322 54.3868C75.5246 54.6944 75.3517 55.1117 75.3517 55.5469C75.3517 55.982 75.5246 56.3993 75.8322 56.707C76.1399 57.0146 76.5572 57.1875 76.9923 57.1875H93.3583L96.258 61.4615H67.9689C67.668 61.4614 67.3728 61.5442 67.1158 61.7006L45.9461 74.5865H21.6395L35.9392 46.1156ZM106.7 82.3594C106.576 82.604 106.388 82.9453 106.212 83.2584H83.7301C83.295 83.2584 82.8777 83.4313 82.5701 83.739C82.2624 84.0466 82.0895 84.4639 82.0895 84.899C82.0895 85.3342 82.2624 85.7515 82.5701 86.0591C82.8777 86.3668 83.295 86.5397 83.7301 86.5397H104.054C101.489 89.8825 98.1916 92.593 94.4155 94.463C90.6395 96.3331 86.4851 97.313 82.2714 97.3275H9.19515L3.57015 90.7256L5.49671 86.5397H55.9567C56.3918 86.5397 56.8091 86.3668 57.1168 86.0591C57.4245 85.7515 57.5973 85.3342 57.5973 84.899C57.5973 84.4639 57.4245 84.0466 57.1168 83.739C56.8091 83.4313 56.3918 83.2584 55.9567 83.2584H7.00796L9.48859 77.8678H46.4064C46.7073 77.8679 47.0025 77.7852 47.2595 77.6287L68.4292 64.7428H115.679L106.7 82.3594Z" fill="black"/>
<path d="M71.4258 83.2584H68.2617C67.8266 83.2584 67.4093 83.4313 67.1016 83.739C66.7939 84.0466 66.6211 84.4639 66.6211 84.899C66.6211 85.3342 66.7939 85.7515 67.1016 86.0591C67.4093 86.3668 67.8266 86.5397 68.2617 86.5397H71.4258C71.8609 86.5397 72.2782 86.3668 72.5859 86.0591C72.8936 85.7515 73.0664 85.3342 73.0664 84.899C73.0664 84.4639 72.8936 84.0466 72.5859 83.739C72.2782 83.4313 71.8609 83.2584 71.4258 83.2584Z" fill="black"/>
<path d="M55.1255 62.6587C55.0287 62.3142 54.822 62.0108 54.5368 61.7946C54.2517 61.5785 53.9036 61.4615 53.5458 61.4615H33.9651C33.6611 61.4615 33.3631 61.5461 33.1043 61.7056C32.8456 61.8652 32.6363 62.0936 32.4998 62.3653L29.6742 67.9903C29.5487 68.2405 29.4893 68.5186 29.5016 68.7982C29.5139 69.0779 29.5974 69.3497 29.7443 69.5879C29.8913 69.8262 30.0967 70.0229 30.341 70.1594C30.5854 70.2959 30.8606 70.3676 31.1405 70.3678H44.3039C44.6048 70.3679 44.9 70.2852 45.157 70.1287L54.398 64.5037C54.7038 64.3176 54.9405 64.0366 55.0718 63.7035C55.2032 63.3704 55.222 63.0035 55.1255 62.6587ZM43.8445 67.0865H33.8001L34.9776 64.7428H47.6939L43.8445 67.0865Z" fill="black"/>
<path d="M90.8789 73.517C90.8789 74.6324 91.2097 75.7229 91.8294 76.6504C92.4492 77.5779 93.33 78.3008 94.3606 78.7276C95.3912 79.1545 96.5252 79.2662 97.6192 79.0486C98.7133 78.831 99.7182 78.2938 100.507 77.505C101.296 76.7163 101.833 75.7113 102.051 74.6173C102.268 73.5232 102.156 72.3892 101.73 71.3586C101.303 70.328 100.58 69.4472 99.6523 68.8275C98.7248 68.2077 97.6344 67.877 96.5189 67.877C95.0236 67.8787 93.5901 68.4735 92.5327 69.5308C91.4754 70.5881 90.8806 72.0217 90.8789 73.517ZM98.8777 73.517C98.8777 73.9835 98.7393 74.4395 98.4801 74.8274C98.221 75.2153 97.8526 75.5176 97.4216 75.6961C96.9906 75.8747 96.5163 75.9214 96.0587 75.8304C95.6012 75.7394 95.1809 75.5147 94.851 75.1848C94.5211 74.855 94.2965 74.4347 94.2055 73.9771C94.1145 73.5196 94.1612 73.0453 94.3397 72.6143C94.5182 72.1833 94.8206 71.8149 95.2085 71.5557C95.5964 71.2965 96.0524 71.1582 96.5189 71.1582C97.1443 71.1589 97.7438 71.4077 98.186 71.8499C98.6282 72.2921 98.8769 72.8916 98.8777 73.517Z" fill="black"/>
</g>
<defs>
<clipPath id="clip0_886:3629">
<rect width="120" height="120" fill="white"/>
</clipPath>
</defs>
</svg>
