<svg width="120" height="120" viewBox="0 0 120 120" fill="none" xmlns="http://www.w3.org/2000/svg">
<path d="M20.3984 20.3953H51.5628V1.64526H1.64844V51.5596H20.3984V20.3953Z" fill="#77718C"/>
<path d="M20.3984 68.4347H1.64844V118.349H51.5628V99.5991H20.3984V68.4347Z" fill="#77718C"/>
<path d="M68.4375 1.64526V20.3953H99.6019V51.5596H118.352V1.64526H68.4375Z" fill="#77718C"/>
<path d="M99.6019 99.5991H68.4375V118.349H118.352V68.4347H99.6019V99.5991Z" fill="#77718C"/>
<path d="M11.0234 43.8253C10.5887 43.8255 10.1717 43.6531 9.86406 43.346C9.55641 43.0389 9.38331 42.6222 9.38281 42.1875V11.0203C9.38269 10.8048 9.42504 10.5914 9.50745 10.3923C9.58985 10.1932 9.7107 10.0123 9.86307 9.85989C10.0154 9.70752 10.1963 9.58668 10.3955 9.50427C10.5946 9.42187 10.808 9.37952 11.0234 9.37964H42.1878C42.6229 9.37964 43.0402 9.55249 43.3479 9.86017C43.6556 10.1678 43.8284 10.5851 43.8284 11.0203C43.8284 11.4554 43.6556 11.8727 43.3479 12.1804C43.0402 12.488 42.6229 12.6609 42.1878 12.6609H12.6641V42.1875C12.6633 42.6221 12.4901 43.0387 12.1825 43.3457C11.8749 43.6528 11.4581 43.8253 11.0234 43.8253Z" fill="#77718C"/>
<path d="M42.1878 110.625H11.0234C10.808 110.625 10.5946 110.583 10.3955 110.5C10.1963 110.418 10.0154 110.297 9.86307 110.145C9.7107 109.992 9.58985 109.811 9.50745 109.612C9.42504 109.413 9.38269 109.2 9.38281 108.984V77.8125C9.38281 77.3774 9.55566 76.9601 9.86334 76.6524C10.171 76.3447 10.5883 76.1719 11.0234 76.1719C11.4586 76.1719 11.8759 76.3447 12.1835 76.6524C12.4912 76.9601 12.6641 77.3774 12.6641 77.8125V107.344H42.1878C42.6229 107.344 43.0402 107.517 43.3479 107.824C43.6556 108.132 43.8284 108.549 43.8284 108.984C43.8284 109.419 43.6556 109.837 43.3479 110.144C43.0402 110.452 42.6229 110.625 42.1878 110.625Z" fill="#77718C"/>
<path d="M108.977 43.8253C108.761 43.8254 108.548 43.783 108.349 43.7006C108.15 43.6182 107.969 43.4974 107.817 43.345C107.664 43.1926 107.543 43.0117 107.461 42.8126C107.378 42.6135 107.336 42.4001 107.336 42.1846V12.6609H77.8125C77.3774 12.6609 76.9601 12.488 76.6524 12.1804C76.3447 11.8727 76.1719 11.4554 76.1719 11.0203C76.1719 10.5851 76.3447 10.1678 76.6524 9.86017C76.9601 9.55249 77.3774 9.37964 77.8125 9.37964H108.977C109.192 9.37952 109.406 9.42187 109.605 9.50427C109.804 9.58668 109.985 9.70752 110.137 9.85989C110.29 10.0123 110.41 10.1932 110.493 10.3923C110.575 10.5914 110.618 10.8048 110.618 11.0203V42.1875C110.617 42.6222 110.444 43.0389 110.136 43.346C109.829 43.6531 109.412 43.8255 108.977 43.8253Z" fill="#77718C"/>
<path d="M108.977 110.625H77.8125C77.3774 110.625 76.9601 110.452 76.6524 110.144C76.3447 109.837 76.1719 109.419 76.1719 108.984C76.1719 108.549 76.3447 108.132 76.6524 107.824C76.9601 107.517 77.3774 107.344 77.8125 107.344H107.336V77.8125C107.336 77.3774 107.509 76.9601 107.817 76.6524C108.124 76.3447 108.542 76.1719 108.977 76.1719C109.412 76.1719 109.829 76.3447 110.137 76.6524C110.445 76.9601 110.617 77.3774 110.617 77.8125V108.977C110.619 109.193 110.577 109.407 110.495 109.607C110.413 109.807 110.292 109.989 110.14 110.142C109.987 110.295 109.806 110.417 109.607 110.5C109.407 110.583 109.193 110.625 108.977 110.625Z" fill="#77718C"/>
<path d="M51.5628 0.00463894H1.64844C1.43295 0.0045157 1.21956 0.0468676 1.02045 0.129273C0.821347 0.211679 0.640436 0.332521 0.488066 0.484892C0.335695 0.637263 0.214852 0.818173 0.132447 1.01728C0.0500414 1.21638 0.00768953 1.42978 0.00781277 1.64526V51.5625C0.00768953 51.7779 0.0500414 51.9913 0.132447 52.1904C0.214852 52.3895 0.335695 52.5705 0.488066 52.7228C0.640436 52.8752 0.821347 52.996 1.02045 53.0784C1.21956 53.1608 1.43295 53.2032 1.64844 53.2031H20.3984C20.8336 53.2031 21.2509 53.0302 21.5585 52.7225C21.8662 52.4149 22.0391 51.9976 22.0391 51.5625V22.0359H51.5628C51.9979 22.0359 52.4152 21.863 52.7229 21.5554C53.0306 21.2477 53.2034 20.8304 53.2034 20.3953V1.64526C53.2034 1.21014 53.0306 0.792844 52.7229 0.485167C52.4152 0.17749 51.9979 0.00463894 51.5628 0.00463894ZM49.9222 18.7546H20.3984C20.183 18.7545 19.9696 18.7969 19.7705 18.8793C19.5713 18.9617 19.3904 19.0825 19.2381 19.2349C19.0857 19.3873 18.9649 19.5682 18.8824 19.7673C18.8 19.9664 18.7577 20.1798 18.7578 20.3953V49.919H3.28906V3.28589H49.9222V18.7546Z" fill="black"/>
<path d="M51.5628 97.9584H22.0391V68.4375C22.0391 68.0024 21.8662 67.5851 21.5585 67.2774C21.2509 66.9697 20.8336 66.7969 20.3984 66.7969H1.64844C1.43295 66.7968 1.21956 66.8391 1.02045 66.9215C0.821347 67.0039 0.640436 67.1248 0.488066 67.2771C0.335695 67.4295 0.214852 67.6104 0.132447 67.8095C0.0500414 68.0086 0.00768953 68.222 0.00781277 68.4375V118.352C0.00768953 118.567 0.0500414 118.781 0.132447 118.98C0.214852 119.179 0.335695 119.36 0.488066 119.512C0.640436 119.665 0.821347 119.785 1.02045 119.868C1.21956 119.95 1.43295 119.993 1.64844 119.993H29.7659C30.2011 119.993 30.6184 119.82 30.926 119.512C31.2337 119.204 31.4066 118.787 31.4066 118.352C31.4066 117.917 31.2337 117.499 30.926 117.192C30.6184 116.884 30.2011 116.711 29.7659 116.711H3.28906V70.0753H18.7578V99.5991C18.7577 99.8145 18.8 100.028 18.8824 100.227C18.9649 100.426 19.0857 100.607 19.2381 100.759C19.3904 100.912 19.5713 101.033 19.7705 101.115C19.9696 101.197 20.183 101.24 20.3984 101.24H49.9222V116.708H42.1878C41.7527 116.708 41.3354 116.881 41.0277 117.189C40.72 117.497 40.5472 117.914 40.5472 118.349C40.5472 118.784 40.72 119.201 41.0277 119.509C41.3354 119.817 41.7527 119.99 42.1878 119.99H51.5628C51.9979 119.99 52.4152 119.817 52.7229 119.509C53.0306 119.201 53.2034 118.784 53.2034 118.349V99.5991C53.2034 99.1639 53.0306 98.7466 52.7229 98.439C52.4152 98.1313 51.9979 97.9584 51.5628 97.9584Z" fill="black"/>
<path d="M118.352 0.00463894H68.4375C68.222 0.0045157 68.0086 0.0468676 67.8095 0.129273C67.6104 0.211679 67.4295 0.332521 67.2771 0.484892C67.1248 0.637263 67.0039 0.818173 66.9215 1.01728C66.8391 1.21638 66.7968 1.42978 66.7969 1.64526V20.3953C66.7968 20.6107 66.8391 20.8241 66.9215 21.0233C67.0039 21.2224 67.1248 21.4033 67.2771 21.5556C67.4295 21.708 67.6104 21.8288 67.8095 21.9113C68.0086 21.9937 68.222 22.036 68.4375 22.0359H99.6019C100.037 22.0359 100.454 21.863 100.762 21.5554C101.07 21.2477 101.243 20.8304 101.243 20.3953C101.243 19.9601 101.07 19.5428 100.762 19.2352C100.454 18.9275 100.037 18.7546 99.6019 18.7546H70.0781V3.28589H116.711V49.919H101.243V44.1796C101.243 43.7445 101.07 43.3272 100.762 43.0195C100.454 42.7119 100.037 42.539 99.6019 42.539C99.1668 42.539 98.7495 42.7119 98.4418 43.0195C98.1341 43.3272 97.9612 43.7445 97.9612 44.1796V51.5625C97.9611 51.7779 98.0035 51.9913 98.0859 52.1904C98.1683 52.3895 98.2891 52.5705 98.4415 52.7228C98.5939 52.8752 98.7748 52.996 98.9739 53.0784C99.173 53.1608 99.3864 53.2032 99.6019 53.2031H118.352C118.567 53.2032 118.781 53.1608 118.98 53.0784C119.179 52.996 119.36 52.8752 119.512 52.7228C119.665 52.5705 119.785 52.3895 119.868 52.1904C119.95 51.9913 119.993 51.7779 119.993 51.5625V1.64526C119.993 1.42978 119.95 1.21638 119.868 1.01728C119.785 0.818173 119.665 0.637263 119.512 0.484892C119.36 0.332521 119.179 0.211679 118.98 0.129273C118.781 0.0468676 118.567 0.0045157 118.352 0.00463894Z" fill="black"/>
<path d="M99.6016 35.7421C99.817 35.7423 100.03 35.6999 100.23 35.6175C100.429 35.5351 100.61 35.4143 100.762 35.2619C100.914 35.1095 101.035 34.9286 101.118 34.7295C101.2 34.5304 101.242 34.317 101.242 34.1015V30.4734C101.242 30.0383 101.069 29.621 100.762 29.3133C100.454 29.0056 100.037 28.8328 99.6016 28.8328C99.1664 28.8328 98.7491 29.0056 98.4415 29.3133C98.1338 29.621 97.9609 30.0383 97.9609 30.4734V34.1015C97.9608 34.317 98.0032 34.5304 98.0856 34.7295C98.168 34.9286 98.2888 35.1095 98.4412 35.2619C98.5936 35.4143 98.7745 35.5351 98.9736 35.6175C99.1727 35.6999 99.3861 35.7423 99.6016 35.7421Z" fill="black"/>
<path d="M118.352 66.7941H99.6019C99.3864 66.7939 99.173 66.8363 98.9739 66.9187C98.7748 67.0011 98.5939 67.1219 98.4415 67.2743C98.2891 67.4267 98.1683 67.6076 98.0859 67.8067C98.0035 68.0058 97.9611 68.2192 97.9612 68.4347V97.9584H68.4375C68.222 97.9583 68.0086 98.0007 67.8095 98.0831C67.6104 98.1655 67.4295 98.2863 67.2771 98.4387C67.1248 98.5911 67.0039 98.772 66.9215 98.9711C66.8391 99.1702 66.7968 99.3836 66.7969 99.5991V118.349C66.7968 118.565 66.8391 118.778 66.9215 118.977C67.0039 119.176 67.1248 119.357 67.2771 119.509C67.4295 119.662 67.6104 119.783 67.8095 119.865C68.0086 119.947 68.222 119.99 68.4375 119.99H118.352C118.567 119.99 118.781 119.947 118.98 119.865C119.179 119.783 119.36 119.662 119.512 119.509C119.665 119.357 119.785 119.176 119.868 118.977C119.95 118.778 119.993 118.565 119.992 118.349V68.4375C119.993 68.2218 119.951 68.0081 119.869 67.8087C119.786 67.6092 119.666 67.428 119.513 67.2753C119.361 67.1226 119.18 67.0015 118.981 66.919C118.781 66.8364 118.568 66.7939 118.352 66.7941ZM116.711 116.708H70.0781V101.24H99.6019C99.8174 101.24 100.031 101.197 100.23 101.115C100.429 101.033 100.61 100.912 100.762 100.759C100.915 100.607 101.035 100.426 101.118 100.227C101.2 100.028 101.243 99.8146 101.242 99.5991V70.0753H116.711V116.708Z" fill="black"/>
<path d="M11.0234 43.8253C11.4581 43.8253 11.8749 43.6528 12.1825 43.3457C12.4901 43.0387 12.6633 42.6221 12.6641 42.1875V12.6609H42.1878C42.6229 12.6609 43.0402 12.488 43.3479 12.1804C43.6556 11.8727 43.8284 11.4554 43.8284 11.0203C43.8284 10.5851 43.6556 10.1678 43.3479 9.86017C43.0402 9.55249 42.6229 9.37964 42.1878 9.37964H11.0234C10.808 9.37952 10.5946 9.42187 10.3955 9.50427C10.1963 9.58668 10.0154 9.70752 9.86307 9.85989C9.7107 10.0123 9.58985 10.1932 9.50745 10.3923C9.42504 10.5914 9.38269 10.8048 9.38281 11.0203V42.1875C9.38331 42.6222 9.55641 43.0389 9.86406 43.346C10.1717 43.6531 10.5887 43.8255 11.0234 43.8253Z" fill="black"/>
<path d="M11.0234 76.1747C10.5887 76.1744 10.1717 76.3468 9.86406 76.6539C9.55641 76.9611 9.38331 77.3778 9.38281 77.8125V108.977C9.38269 109.192 9.42504 109.406 9.50745 109.605C9.58985 109.804 9.7107 109.985 9.86307 110.137C10.0154 110.29 10.1963 110.41 10.3955 110.493C10.5946 110.575 10.808 110.618 11.0234 110.617H42.1878C42.6229 110.617 43.0402 110.445 43.3479 110.137C43.6556 109.829 43.8284 109.412 43.8284 108.977C43.8284 108.542 43.6556 108.124 43.3479 107.817C43.0402 107.509 42.6229 107.336 42.1878 107.336H12.6641V77.8125C12.6633 77.3779 12.4901 76.9613 12.1825 76.6542C11.8749 76.3472 11.4581 76.1747 11.0234 76.1747Z" fill="black"/>
<path d="M108.977 43.8253C109.192 43.8254 109.406 43.783 109.605 43.7006C109.804 43.6182 109.985 43.4974 110.137 43.345C110.29 43.1926 110.41 43.0117 110.493 42.8126C110.575 42.6135 110.618 42.4001 110.618 42.1846V11.0203C110.618 10.8048 110.575 10.5914 110.493 10.3923C110.41 10.1932 110.29 10.0123 110.137 9.85989C109.985 9.70752 109.804 9.58668 109.605 9.50427C109.406 9.42187 109.192 9.37952 108.977 9.37964H77.8125C77.3774 9.37964 76.9601 9.55249 76.6524 9.86017C76.3447 10.1678 76.1719 10.5851 76.1719 11.0203C76.1719 11.4554 76.3447 11.8727 76.6524 12.1804C76.9601 12.488 77.3774 12.6609 77.8125 12.6609H107.336V42.1875C107.337 42.6222 107.51 43.0389 107.818 43.346C108.125 43.6531 108.542 43.8255 108.977 43.8253Z" fill="black"/>
<path d="M76.1719 108.98C76.1711 109.196 76.213 109.409 76.2952 109.609C76.3773 109.809 76.498 109.99 76.6505 110.143C76.8029 110.296 76.984 110.417 77.1834 110.5C77.3828 110.583 77.5966 110.625 77.8125 110.625H108.977C109.192 110.625 109.406 110.583 109.605 110.5C109.804 110.418 109.985 110.297 110.137 110.145C110.29 109.992 110.41 109.811 110.493 109.612C110.575 109.413 110.618 109.2 110.618 108.984V77.8125C110.618 77.3774 110.445 76.9601 110.137 76.6524C109.829 76.3447 109.412 76.1719 108.977 76.1719C108.542 76.1719 108.124 76.3447 107.817 76.6524C107.509 76.9601 107.336 77.3774 107.336 77.8125V107.344H77.8125C77.3781 107.344 76.9614 107.516 76.6538 107.822C76.3462 108.129 76.1729 108.545 76.1719 108.98Z" fill="black"/>
</svg>
