<svg width="120" height="120" viewBox="0 0 120 120" fill="none" xmlns="http://www.w3.org/2000/svg">
<path d="M5.91016 104.952H114.085V114.088H5.91016V104.952Z" fill="#F5F5F5"/>
<path d="M101.935 5.91187H18.0611L5.91016 28.8375V39.2287C5.91016 42.0978 7.04989 44.8493 9.07862 46.8781C11.1074 48.9068 13.8589 50.0466 16.728 50.0466C19.597 50.0466 22.3486 48.9068 24.3773 46.8781C26.4061 44.8493 27.5458 42.0978 27.5458 39.2287C27.5458 42.0978 28.6855 44.8493 30.7142 46.8781C32.743 48.9068 35.4945 50.0466 38.3636 50.0466C41.2325 50.0463 43.9838 48.9065 46.0123 46.8778C48.0409 44.849 49.1805 42.0976 49.1805 39.2287C49.1805 42.0978 50.3202 44.8493 52.3489 46.8781C54.3777 48.9068 57.1292 50.0466 59.9983 50.0466C62.8673 50.0466 65.6189 48.9068 67.6476 46.8781C69.6764 44.8493 70.8161 42.0978 70.8161 39.2287C70.8151 40.6496 71.0942 42.0566 71.6375 43.3695C72.1807 44.6823 72.9774 45.8752 73.982 46.88C74.9867 47.8847 76.1795 48.6815 77.4923 49.2248C78.8051 49.7682 80.2122 50.0474 81.633 50.0466C84.502 50.0466 87.2536 48.9068 89.2823 46.8781C91.3111 44.8493 92.4508 42.0978 92.4508 39.2287C92.4508 42.0978 93.5905 44.8493 95.6193 46.8781C97.648 48.9068 100.4 50.0466 103.269 50.0466C106.138 50.0466 108.889 48.9068 110.918 46.8781C112.947 44.8493 114.086 42.0978 114.086 39.2287V28.8375L101.935 5.91187Z" fill="#E2E8ED"/>
<path d="M103.269 50.0467C100.4 50.0467 97.6485 48.907 95.6198 46.8782C93.5911 44.8495 92.4513 42.0979 92.4513 39.2289C92.4513 42.0979 91.3116 44.8495 89.2829 46.8782C87.2541 48.907 84.5026 50.0467 81.6335 50.0467C80.2127 50.0476 78.8056 49.7683 77.4928 49.225C76.18 48.6816 74.9872 47.8848 73.9826 46.8801C72.9779 45.8754 72.1812 44.6825 71.638 43.3696C71.0948 42.0568 70.8157 40.6497 70.8166 39.2289C70.8166 42.0979 69.6769 44.8495 67.6482 46.8782C65.6194 48.907 62.8679 50.0467 59.9988 50.0467C57.1298 50.0467 54.3782 48.907 52.3495 46.8782C50.3207 44.8495 49.181 42.0979 49.181 39.2289C49.181 42.0978 48.0414 44.8492 46.0129 46.8779C43.9843 48.9066 41.233 50.0464 38.3641 50.0467C35.4951 50.0467 32.7435 48.907 30.7148 46.8782C28.6861 44.8495 27.5463 42.0979 27.5463 39.2289C27.5463 40.6495 27.2665 42.0562 26.7229 43.3687C26.1792 44.6812 25.3824 45.8737 24.3779 46.8782C23.3733 47.8828 22.1808 48.6796 20.8683 49.2232C19.5558 49.7669 18.1491 50.0467 16.7285 50.0467C15.4479 50.0443 14.178 49.8135 12.9785 49.3651V104.952H107.019V49.3651C105.82 49.8135 104.55 50.0443 103.269 50.0467Z" fill="#FFC329"/>
<path d="M25.5488 58.8656H53.5454V104.952H25.5488V58.8656Z" fill="#E0F3FC"/>
<path d="M63.3184 58.8656H94.4509V80.6728H63.3184V58.8656Z" fill="#E0F3FC"/>
<path d="M35.0723 5.91565L27.5441 28.8375V39.225C27.5441 42.0931 26.4048 44.8437 24.3768 46.8717C22.3487 48.8997 19.5981 50.0391 16.7301 50.0391C13.862 50.0391 11.1114 48.8997 9.08338 46.8717C7.05535 44.8437 5.91602 42.0931 5.91602 39.225V28.8375L18.066 5.91565H35.0723Z" fill="#77718C"/>
<path d="M84.9297 5.91565L92.4578 28.8375V39.225C92.4578 42.0931 93.5971 44.8437 95.6252 46.8717C97.6532 48.8997 100.404 50.0391 103.272 50.0391C106.14 50.0391 108.891 48.8997 110.919 46.8717C112.947 44.8437 114.086 42.0931 114.086 39.225V28.8375L101.936 5.91565H84.9297Z" fill="#77718C"/>
<path d="M70.8191 28.8375V39.225C70.8191 42.0943 69.6793 44.8461 67.6504 46.875C65.6215 48.9039 62.8697 50.0438 60.0004 50.0438C57.1311 50.0438 54.3793 48.9039 52.3504 46.875C50.3215 44.8461 49.1816 42.0943 49.1816 39.225V28.8375L51.4973 5.91565H68.5035L70.8191 28.8375Z" fill="#77718C"/>
<path d="M33.8535 112.447H29.6348C29.1996 112.447 28.7823 112.62 28.4747 112.927C28.167 113.235 27.9941 113.652 27.9941 114.087C27.9941 114.522 28.167 114.94 28.4747 115.247C28.7823 115.555 29.1996 115.728 29.6348 115.728H33.8535C34.2886 115.728 34.7059 115.555 35.0136 115.247C35.3213 114.94 35.4941 114.522 35.4941 114.087C35.4941 113.652 35.3213 113.235 35.0136 112.927C34.7059 112.62 34.2886 112.447 33.8535 112.447Z" fill="black"/>
<path d="M115.727 39.2288V28.8375C115.727 28.815 115.721 28.7944 115.721 28.7728C115.718 28.7132 115.712 28.6537 115.703 28.5947C115.695 28.5441 115.687 28.4935 115.675 28.4438C115.662 28.3941 115.646 28.3435 115.628 28.2938C115.609 28.2386 115.587 28.1844 115.562 28.1316C115.552 28.1119 115.547 28.0903 115.537 28.0697L103.386 5.14409C103.246 4.88084 103.038 4.66059 102.782 4.50698C102.527 4.35338 102.234 4.27222 101.936 4.27222H80.1865C79.7514 4.27222 79.3341 4.44507 79.0264 4.75274C78.7187 5.06042 78.5459 5.47772 78.5459 5.91284C78.5459 6.34796 78.7187 6.76526 79.0264 7.07294C79.3341 7.38062 79.7514 7.55347 80.1865 7.55347H83.7387L90.1868 27.1969H72.3002L70.3184 7.55347H72.9884C73.4235 7.55347 73.8408 7.38062 74.1485 7.07294C74.4561 6.76526 74.629 6.34796 74.629 5.91284C74.629 5.47772 74.4561 5.06042 74.1485 4.75274C73.8408 4.44507 73.4235 4.27222 72.9884 4.27222H18.0621C17.7641 4.27222 17.4718 4.35338 17.2164 4.50698C16.9611 4.66059 16.7524 4.88084 16.6127 5.14409L4.4618 28.0697C4.45148 28.0903 4.4468 28.1119 4.43648 28.1316C4.41172 28.1844 4.38981 28.2386 4.37086 28.2938C4.35305 28.3435 4.33711 28.3932 4.32398 28.4438C4.31086 28.4944 4.30336 28.5441 4.29586 28.5947C4.28621 28.6537 4.28027 28.7132 4.27805 28.7728C4.27805 28.7944 4.27148 28.815 4.27148 28.8375V39.2288C4.27544 41.5741 4.94116 43.8706 6.19212 45.8544C7.44307 47.8383 9.22847 49.4288 11.343 50.4432V103.313H5.91211C5.47699 103.313 5.05969 103.485 4.75201 103.793C4.44434 104.101 4.27148 104.518 4.27148 104.953V114.088C4.27136 114.304 4.31371 114.517 4.39612 114.716C4.47852 114.915 4.59937 115.096 4.75174 115.249C4.90411 115.401 5.08502 115.522 5.28412 115.604C5.48323 115.687 5.69662 115.729 5.91211 115.729H21.5215C21.9566 115.729 22.3739 115.556 22.6816 115.248C22.9893 114.941 23.1621 114.523 23.1621 114.088C23.1621 113.653 22.9893 113.236 22.6816 112.928C22.3739 112.62 21.9566 112.448 21.5215 112.448H7.55273V106.594H112.446V112.448H41.5765C41.1414 112.448 40.7241 112.62 40.4164 112.928C40.1087 113.236 39.9359 113.653 39.9359 114.088C39.9359 114.523 40.1087 114.941 40.4164 115.248C40.7241 115.556 41.1414 115.729 41.5765 115.729H114.086C114.302 115.729 114.515 115.687 114.714 115.604C114.914 115.522 115.094 115.401 115.247 115.249C115.399 115.096 115.52 114.915 115.602 114.716C115.685 114.517 115.727 114.304 115.727 114.088V104.953C115.727 104.518 115.554 104.101 115.247 103.793C114.939 103.485 114.522 103.313 114.086 103.313H108.66V50.4432C110.774 49.4281 112.558 47.8373 113.808 45.8535C115.059 43.8698 115.724 41.5736 115.727 39.2288ZM112.446 39.2288C112.458 40.4417 112.23 41.645 111.774 42.7691C111.318 43.8932 110.644 44.9159 109.791 45.7779C108.938 46.6399 107.922 47.3242 106.803 47.7912C105.683 48.2583 104.482 48.4987 103.269 48.4987C102.056 48.4987 100.855 48.2583 99.7358 47.7912C98.6163 47.3242 97.6005 46.6399 96.7472 45.7779C95.8938 44.9159 95.2198 43.8932 94.7641 42.7691C94.3085 41.645 94.0802 40.4417 94.0924 39.2288V30.4782H112.446V39.2288ZM29.1874 30.4782H47.5409V39.2288C47.5531 40.4417 47.3248 41.645 46.8691 42.7691C46.4135 43.8932 45.7395 44.9159 44.8861 45.7779C44.0327 46.6399 43.017 47.3242 41.8975 47.7912C40.778 48.2583 39.5771 48.4987 38.3641 48.4987C37.1512 48.4987 35.9502 48.2583 34.8308 47.7912C33.7113 47.3242 32.6955 46.6399 31.8422 45.7779C30.9888 44.9159 30.3148 43.8932 29.8591 42.7691C29.4035 41.645 29.1752 40.4417 29.1874 39.2288V30.4782ZM49.6802 7.55347L47.6984 27.1969H29.8118L36.2599 7.55347H49.6802ZM50.8221 30.4782H69.1765V39.2288C69.1765 41.2961 68.4785 43.3028 67.1957 44.9239C65.9129 46.5451 64.1204 47.6857 62.1085 48.1609C60.0966 48.6362 57.9831 48.4184 56.1105 47.5427C54.2378 46.667 52.7157 45.1847 51.7905 43.336C51.1495 42.062 50.8177 40.6549 50.8221 39.2288V30.4782ZM72.4577 30.4782H90.8112V39.2288C90.8116 41.3036 90.1089 43.3174 88.8178 44.9417C87.5267 46.5659 85.7233 47.7047 83.7018 48.1724C81.6804 48.6401 79.5601 48.409 77.6868 47.5169C75.8135 46.6248 74.2977 45.1242 73.3868 43.26C72.771 42.0057 72.4531 40.6261 72.4577 39.2288V30.4782ZM87.1924 7.55347H100.949L111.356 27.1969H93.6368L87.1924 7.55347ZM68.9993 27.1969H50.9993L52.9784 7.55347H67.0202L68.9993 27.1969ZM19.0493 7.55347H32.8062L26.358 27.1969H8.63836L19.0493 7.55347ZM7.55273 39.2288V30.4782H25.9062V39.2288C25.9184 40.4417 25.6901 41.645 25.2344 42.7691C24.7788 43.8932 24.1048 44.9159 23.2514 45.7779C22.3981 46.6399 21.3823 47.3242 20.2628 47.7912C19.1434 48.2583 17.9424 48.4987 16.7295 48.4987C15.5165 48.4987 14.3155 48.2583 13.1961 47.7912C12.0766 47.3242 11.0608 46.6399 10.2075 45.7779C9.35414 44.9159 8.68013 43.8932 8.22446 42.7691C7.76878 41.645 7.54048 40.4417 7.55273 39.2288ZM51.9049 103.313H27.1868V60.5072H51.9049V103.313ZM105.379 103.313H55.1862V58.8666C55.1862 58.4315 55.0133 58.0142 54.7056 57.7065C54.398 57.3988 53.9807 57.226 53.5455 57.226H25.548C25.1129 57.226 24.6956 57.3988 24.388 57.7065C24.0803 58.0142 23.9074 58.4315 23.9074 58.8666V103.313H14.6243V51.495C17.1449 51.9448 19.743 51.6 22.059 50.5082C24.375 49.4165 26.2944 47.6318 27.5515 45.4013C28.6399 47.3092 30.2136 48.8953 32.1129 49.9987C34.0122 51.102 36.1695 51.6835 38.3661 51.6839C40.5626 51.6844 42.7202 51.1039 44.62 50.0014C46.5197 48.8988 48.0941 47.3134 49.1834 45.406C50.2729 47.3133 51.8474 48.8987 53.7472 50.0013C55.647 51.104 57.8046 51.6848 60.0012 51.6848C62.1978 51.6848 64.3554 51.104 66.2551 50.0013C68.1549 48.8987 69.7294 47.3133 70.819 45.406C71.9088 47.3135 73.4837 48.899 75.3839 50.0015C77.2842 51.1041 79.4422 51.6846 81.6391 51.6841C83.836 51.6836 85.9938 51.1022 87.8935 49.9988C89.7933 48.8954 91.3675 47.3093 92.4565 45.4013C93.7136 47.6318 95.633 49.4165 97.949 50.5082C100.265 51.6 102.863 51.9448 105.384 51.495L105.379 103.313Z" fill="black"/>
<path d="M94.4509 57.226H63.3184C63.1029 57.2258 62.8895 57.2682 62.6904 57.3506C62.4913 57.433 62.3104 57.5538 62.158 57.7062C62.0056 57.8586 61.8848 58.0395 61.8024 58.2386C61.72 58.4377 61.6776 58.6511 61.6777 58.8666V80.6728C61.6776 80.8883 61.72 81.1017 61.8024 81.3008C61.8848 81.4999 62.0056 81.6808 62.158 81.8332C62.3104 81.9856 62.4913 82.1064 62.6904 82.1888C62.8895 82.2712 63.1029 82.3136 63.3184 82.3135H94.4509C94.886 82.3135 95.3033 82.1406 95.611 81.8329C95.9186 81.5252 96.0915 81.108 96.0915 80.6728V58.8666C96.0915 58.4315 95.9186 58.0142 95.611 57.7065C95.3033 57.3988 94.886 57.226 94.4509 57.226ZM92.8121 79.0313H64.959V60.5072H92.8121V79.0313Z" fill="black"/>
</svg>
